#!OML:ASF E:\Steps\Project 1\Capture day 1\Session 2\Subject.ASF
:FULLY-SPECIFIED
:DEGREES
728
root 8.76556 22.3957 -12.0761 -152.881 6.38242 177.909
lowerback -22.3973 -0.94218 -7.67005
upperback 0.778489 1.14211 -0.961057
thorax 13.433 0.112416 3.69878
lowerneck 1.45372 -2.56147 -3.44623
upperneck 19.9458 -2.76023 6.75201
head 5.91294 -0.486395 2.66563
rclavicle -2.48481e-015 7.15625e-015
rhumerus -38.5211 -11.3119 -78.8468
rradius 37.9509
rwrist -7.00819
rhand -9.8394 -47.8054
rfingers 7.12502
rthumb 16.1383 -77.1535
lclavicle -2.48481e-015 7.15625e-015
lhumerus -31.0095 0.448732 79.7388
lradius 31.5711
lwrist -0.609531
lhand -18.5677 -12.3309
lfingers 7.12502
lthumb 7.72244 17.5081
rfemur -38.3581 -0.746924 16.4926
rtibia 52.1768
rfoot -8.36353 -5.57198
rtoes -37.172
lfemur -43.4646 -8.7177 -21.9839
ltibia 27.862
lfoot -9.11092 2.24819
ltoes -21.0484
729
root 8.75271 22.4206 -12.1024 -152.991 6.25945 178.038
lowerback -22.1646 -1.06068 -7.47322
upperback 0.728387 0.890653 -0.867135
thorax 13.2701 0.0132185 3.60686
lowerneck 1.84278 -2.42198 -3.6166
upperneck 19.4642 -2.64424 7.15584
head 5.69303 -0.441235 2.82318
rclavicle -7.05686e-015 -9.54166e-015
rhumerus -38.7337 -11.415 -78.69
rradius 37.8447
rwrist -7.05753
rhand -9.51225 -47.4721
rfingers 7.12502
rthumb 16.4533 -76.7944
lclavicle -7.05686e-015 -9.54166e-015
lhumerus -31.0292 0.579745 79.5729
lradius 31.4834
lwrist -0.662865
lhand -18.6566 -12.6254
lfingers 7.12502
lthumb 7.63656 17.2167
rfemur -39.2537 -0.842286 16.7406
rtibia 53.9356
rfoot -9.12383 -6.01472
rtoes -36.3379
lfemur -42.9038 -8.83331 -21.8594
ltibia 27.2163
lfoot -8.94514 2.38637
ltoes -20.414
730
root 8.74191 22.4428 -12.138 -152.948 6.27653 178.113
lowerback -22.3071 -1.16813 -7.36721
upperback 0.724525 0.726224 -0.812486
thorax 13.3662 -0.0607552 3.55615
lowerneck 1.48463 -2.40211 -3.35826
upperneck 19.7398 -2.58909 6.87626
head 5.83235 -0.403702 2.69462
rclavicle -2.22639e-014 4.8901e-014
rhumerus -38.9416 -11.4904 -78.5921
rradius 37.8699
rwrist -7.19326
rhand -9.40749 -47.4171
rfingers 7.12502
rthumb 16.5542 -76.731
lclavicle -2.22639e-014 4.8901e-014
lhumerus -30.9153 0.46211 79.453
lradius 31.3124
lwrist -0.692638
lhand -18.9356 -13.2895
lfingers 7.12502
lthumb 7.36734 16.5622
rfemur -40.1407 -0.805395 16.8638
rtibia 55.4118
rfoot -10.0825 -6.29147
rtoes -36.1979
lfemur -42.4241 -8.85196 -21.8188
ltibia 26.4869
lfoot -8.92078 2.4832
ltoes -20.4462
731
root 8.72496 22.4626 -12.1666 -152.92 6.07083 178.327
lowerback -22.4641 -1.23041 -6.99892
upperback 0.759227 0.538473 -0.698489
thorax 13.5172 -0.135489 3.41433
lowerneck 1.87852 -2.2765 -3.82684
upperneck 19.1626 -2.53127 7.58091
head 5.59035 -0.393865 2.99407
rclavicle -1.799e-014 2.3059e-014
rhumerus -39.2258 -11.7382 -78.3645
rradius 38.0338
rwrist -7.14565
rhand -9.63529 -47.9806
rfingers 7.12502
rthumb 16.3348 -77.3127
lclavicle -1.799e-014 2.3059e-014
lhumerus -30.7019 0.209803 79.4893
lradius 31.2462
lwrist -0.470449
lhand -18.929 -13.1479
lfingers 7.12502
lthumb 7.37369 16.7036
rfemur -40.8518 -0.90056 17.1942
rtibia 56.635
rfoot -11.096 -6.31784
rtoes -36.9043
lfemur -41.9876 -8.93993 -21.6508
ltibia 25.8789
lfoot -8.83502 2.49624
ltoes -21.0386
732
root 8.72521 22.4856 -12.1945 -153.009 6.22911 178.207
lowerback -22.5797 -1.34751 -7.31855
upperback 0.796249 0.470124 -0.622494
thorax 13.6346 -0.198813 3.66174
lowerneck 1.69896 -2.60341 -3.40845
upperneck 19.7709 -2.82462 6.62088
head 5.81767 -0.541753 2.61195
rclavicle -9.83984e-015 -1.19271e-014
rhumerus -39.4321 -12.0428 -78.0403
rradius 37.9964
rwrist -7.10522
rhand -10.0126 -48.259
rfingers 7.12502
rthumb 15.9715 -77.6205
lclavicle -9.83984e-015 -1.19271e-014
lhumerus -30.5041 0.210452 79.5358
lradius 31.2104
lwrist -0.388663
lhand -18.7648 -12.5449
lfingers 7.12502
lthumb 7.53213 17.3009
rfemur -41.6135 -0.700554 17.0722
rtibia 57.8043
rfoot -11.935 -6.64108
rtoes -37.2178
lfemur -41.4992 -8.86813 -21.8147
ltibia 25.318
lfoot -8.65318 2.57609
ltoes -22.0105
733
root 8.71749 22.5055 -12.2268 -153.12 6.08472 178.262
lowerback -22.4746 -1.51015 -7.27395
upperback 0.763637 0.209126 -0.484521
thorax 13.5659 -0.319106 3.70513
lowerneck 2.00001 -2.42857 -3.80969
upperneck 19.2467 -2.69813 7.27003
head 5.60434 -0.494946 2.88628
rclavicle -1.09332e-015 -8.34896e-015
rhumerus -39.3909 -12.4147 -77.6653
rradius 37.3444
rwrist -6.93636
rhand -10.0436 -47.9655
rfingers 7.12502
rthumb 15.9417 -77.3294
lclavicle -1.09332e-015 -8.34896e-015
lhumerus -30.5856 0.397724 79.5056
lradius 31.2926
lwrist -0.423799
lhand -18.714 -12.0494
lfingers 7.12502
lthumb 7.58117 17.7947
rfemur -42.1175 -0.837003 17.2806
rtibia 58.7634
rfoot -12.6249 -7.00956
rtoes -38.8227
lfemur -40.9182 -8.98168 -21.7949
ltibia 24.6702
lfoot -8.4052 2.4361
ltoes -21.979
734
root 8.7098 22.5252 -12.2672 -153.236 6.19584 178.259
lowerback -22.4851 -1.63353 -7.30631
upperback 0.748302 0.04387 -0.41021
thorax 13.574 -0.400386 3.75298
lowerneck 1.72719 -2.49594 -3.49782
upperneck 19.6746 -2.67686 6.48806
head 5.7746 -0.497147 2.58925
rclavicle 1.56046e-014 4.77083e-015
rhumerus -39.8905 -12.3581 -77.4778
rradius 37.8281
rwrist -7.09455
rhand -9.8203 -48.3096
rfingers 7.12502
rthumb 16.1567 -77.6562
lclavicle 1.56046e-014 4.77083e-015
lhumerus -30.8806 0.570123 79.4345
lradius 31.5789
lwrist -0.357907
lhand -18.7425 -12.048
lfingers 7.12502
lthumb 7.55369 17.7971
rfemur -42.6664 -0.580741 17.1533
rtibia 59.2751
rfoot -13.1059 -6.92974
rtoes -37.5148
lfemur -40.2236 -9.02646 -21.8537
ltibia 23.8668
lfoot -8.26455 2.58881
ltoes -21.8214
735
root 8.70018 22.5409 -12.2995 -153.277 6.10854 178.501
lowerback -22.5567 -1.6778 -6.97097
upperback 0.768419 -0.11844 -0.30695
thorax 13.6545 -0.4614 3.62402
lowerneck 1.428 -2.33456 -3.7056
upperneck 19.749 -2.52897 6.95116
head 5.84644 -0.406246 2.77911
rclavicle 7.15625e-015 2.3059e-014
rhumerus -40.207 -12.576 -77.2566
rradius 37.8359
rwrist -6.98231
rhand -10.0513 -48.1663
rfingers 7.12502
rthumb 15.9343 -77.5308
lclavicle 7.15625e-015 2.3059e-014
lhumerus -30.954 0.673229 79.3441
lradius 31.6955
lwrist -0.37017
lhand -18.6895 -12.2958
lfingers 7.12502
lthumb 7.60486 17.5475
rfemur -43.1033 -0.388697 17.3748
rtibia 59.6117
rfoot -13.7082 -6.75605
rtoes -35.9297
lfemur -39.7239 -9.09835 -21.6116
ltibia 23.2948
lfoot -8.24408 2.82719
ltoes -22.7433
736
root 8.69343 22.5572 -12.3264 -153.251 6.16436 178.524
lowerback -22.6671 -1.72423 -6.94077
upperback 0.779722 -0.181589 -0.282353
thorax 13.7383 -0.492343 3.61363
lowerneck 1.58189 -2.37076 -4.04997
upperneck 19.2199 -2.70441 7.59671
head 5.67236 -0.504732 3.02725
rclavicle -9.54166e-015 -2.10712e-014
rhumerus -40.4563 -13.0359 -76.9632
rradius 37.7328
rwrist -6.77483
rhand -10.2776 -48.0129
rfingers 7.12502
rthumb 15.7163 -77.3948
lclavicle -9.54166e-015 -2.10712e-014
lhumerus -30.7148 0.66271 79.3048
lradius 31.4848
lwrist -0.343169
lhand -18.7792 -12.6015
lfingers 7.12502
lthumb 7.51828 17.2449
rfemur -43.664 -0.203362 17.3439
rtibia 59.8915
rfoot -14.3961 -6.77369
rtoes -35.5129
lfemur -39.3706 -9.0341 -21.6619
ltibia 22.7952
lfoot -8.14234 2.85864
ltoes -23.2961
737
root 8.69477 22.5793 -12.3513 -153.331 6.68668 177.95
lowerback -22.6615 -1.84664 -7.74869
upperback 0.786212 -0.0935874 -0.427158
thorax 13.7424 -0.499112 3.94069
lowerneck 0.991573 -2.54195 -3.33132
upperneck 20.0694 -2.77155 6.49191
head 6.02756 -0.519339 2.55847
rclavicle 1.35174e-014 -1.35174e-014
rhumerus -40.7039 -13.7094 -76.5926
rradius 37.6868
rwrist -6.42913
rhand -10.0987 -48.0749
rfingers 7.12502
rthumb 15.8886 -77.443
lclavicle 1.35174e-014 -1.35174e-014
lhumerus -30.5175 0.645218 79.2739
lradius 31.373
lwrist -0.281621
lhand -18.9927 -12.7668
lfingers 7.12502
lthumb 7.31219 17.0869
rfemur -44.4473 0.0965798 16.5335
rtibia 60.3456
rfoot -15.1784 -6.9694
rtoes -36.3375
lfemur -38.8857 -8.88842 -22.4174
ltibia 22.1369
lfoot -7.93873 2.89293
ltoes -22.7723
738
root 8.6857 22.5942 -12.3729 -153.635 6.57609 178.239
lowerback -22.2238 -1.79296 -7.37053
upperback 0.874243 -0.192378 -0.345346
thorax 13.602 -0.526365 3.78154
lowerneck 0.641036 -2.62001 -3.68319
upperneck 19.8242 -3.02924 7.23455
head 6.03587 -0.637248 2.83653
rclavicle -1.2921e-015 -1.15295e-014
rhumerus -40.7731 -13.8469 -76.4817
rradius 37.3548
rwrist -6.51939
rhand -10.1017 -47.8393
rfingers 7.12502
rthumb 15.8857 -77.2077
lclavicle -1.2921e-015 -1.15295e-014
lhumerus -30.3678 0.708542 79.2249
lradius 31.4489
lwrist -0.366434
lhand -18.9538 -12.6531
lfingers 7.12502
lthumb 7.3497 17.1992
rfemur -44.5523 0.370435 16.8213
rtibia 60.3238
rfoot -15.8677 -7.00591
rtoes -36.5876
lfemur -38.1701 -8.84153 -22.1766
ltibia 21.6205
lfoot -7.77398 2.88365
ltoes -22.7538
739
root 8.67834 22.6087 -12.4042 -153.768 6.7318 178.383
lowerback -22.2303 -1.7556 -7.20212
upperback 0.954512 -0.19549 -0.321892
thorax 13.6983 -0.52594 3.70987
lowerneck 0.851872 -2.5447 -3.18369
upperneck 19.9233 -2.81808 6.52871
head 6.00555 -0.541942 2.53876
rclavicle 8.24956e-015 7.95139e-015
rhumerus -40.9006 -14.3645 -76.2089
rradius 37.0935
rwrist -6.0993
rhand -10.2464 -47.5715
rfingers 7.12502
rthumb 15.7463 -76.951
lclavicle 8.24956e-015 7.95139e-015
lhumerus -30.2388 0.701577 79.195
lradius 31.5605
lwrist -0.338661
lhand -18.7914 -12.3929
lfingers 7.12502
lthumb 7.50647 17.454
rfemur -44.8264 0.847789 16.8002
rtibia 60.1052
rfoot -16.3843 -6.96322
rtoes -35.001
lfemur -37.6348 -8.7424 -22.1102
ltibia 21.1589
lfoot -7.70477 3.02829
ltoes -23.4818
740
root 8.67488 22.6208 -12.4366 -153.711 6.82219 178.571
lowerback -22.4281 -1.77994 -7.04154
upperback 0.914606 -0.261387 -0.259705
thorax 13.771 -0.547859 3.66764
lowerneck 1.10377 -2.51534 -3.18336
upperneck 19.6048 -2.8098 6.64299
head 5.86202 -0.547743 2.57209
rclavicle -2.88238e-015 7.95139e-016
rhumerus -41.1962 -14.8809 -75.8741
rradius 36.8323
rwrist -5.67183
rhand -10.341 -47.4191
rfingers 7.12502
rthumb 15.6553 -76.8057
lclavicle -2.88238e-015 7.95139e-016
lhumerus -30.3401 0.510966 79.1578
lradius 31.6727
lwrist -0.0960666
lhand -18.6397 -11.8095
lfingers 7.12502
lthumb 7.65295 18.032
rfemur -45.1594 1.30036 16.8761
rtibia 59.5495
rfoot -16.8711 -7.13198
rtoes -34.5361
lfemur -37.3142 -8.69637 -21.9142
ltibia 20.71
lfoot -7.69738 3.15837
ltoes -23.7091
741
root 8.67191 22.631 -12.4716 -153.643 6.76346 178.872
lowerback -22.6161 -1.81992 -6.76752
upperback 0.839885 -0.394685 -0.10876
thorax 13.8032 -0.594479 3.63903
lowerneck 1.24689 -2.46557 -3.30808
upperneck 19.4242 -2.76897 6.80003
head 5.78138 -0.536277 2.64338
rclavicle 2.13694e-014 -2.54444e-014
rhumerus -41.5434 -15.0855 -75.5611
rradius 36.6406
rwrist -5.53241
rhand -10.3878 -47.7028
rfingers 7.12502
rthumb 15.6102 -77.093
lclavicle 2.13694e-014 -2.54444e-014
lhumerus -30.5813 0.378712 79.2066
lradius 31.7347
lwrist 0.170406
lhand -18.7392 -11.6118
lfingers 7.12502
lthumb 7.55687 18.2332
rfemur -45.3016 1.65868 17.1321
rtibia 58.6075
rfoot -17.3385 -7.32037
rtoes -36.0784
lfemur -36.9536 -8.64522 -21.6007
ltibia 20.1916
lfoot -7.65684 3.1834
ltoes -23.6933
742
root 8.66567 22.6426 -12.4947 -153.832 6.76493 179.014
lowerback -22.3948 -1.88867 -6.66592
upperback 0.818403 -0.559325 0.039461
thorax 13.6696 -0.667234 3.69411
lowerneck 1.54733 -2.45071 -3.39306
upperneck 19.1862 -2.73376 6.65293
head 5.65346 -0.550468 2.6103
rclavicle -2.68359e-015 -8.74653e-015
rhumerus -41.676 -15.0866 -75.2827
rradius 36.3311
rwrist -5.40658
rhand -10.5007 -48.0619
rfingers 7.12502
rthumb 15.5015 -77.4604
lclavicle -2.68359e-015 -8.74653e-015
lhumerus -30.7652 0.522992 79.3079
lradius 31.7072
lwrist 0.331766
lhand -19.1392 -12.2088
lfingers 7.12502
lthumb 7.17076 17.6497
rfemur -45.2735 1.94545 17.1839
rtibia 57.7101
rfoot -18.0016 -7.39081
rtoes -36.745
lfemur -36.4256 -8.58684 -21.5438
ltibia 19.7915
lfoot -7.59064 3.22829
ltoes -23.9366
